<?xml version="1.0" standalone="no"?>
<!DOCTYPE svg PUBLIC "-//W3C//DTD SVG 20010904//EN"
 "http://www.w3.org/TR/2001/REC-SVG-20010904/DTD/svg10.dtd">
<svg version="1.0" xmlns="http://www.w3.org/2000/svg"
 width="294.000000pt" height="294.000000pt" viewBox="0 0 294.000000 294.000000"
 preserveAspectRatio="xMidYMid meet">
<metadata>
Created by potrace 1.14, written by Peter Selinger 2001-2017
</metadata>
<g transform="translate(0.000000,294.000000) scale(0.100000,-0.100000)"
fill="#000000" stroke="none">
<path d="M927 2925 c-9 -8 -21 -15 -27 -15 -6 0 -13 -7 -16 -15 -4 -8 -14 -15
-23 -15 -9 0 -43 -29 -75 -64 -50 -55 -66 -66 -110 -77 -91 -21 -286 -134
-286 -166 0 -6 -11 -32 -24 -57 -13 -25 -26 -67 -29 -93 -3 -26 -10 -79 -16
-116 -6 -38 -13 -90 -15 -115 -6 -51 -26 -129 -39 -150 -5 -7 -9 -33 -9 -57 0
-37 -3 -44 -21 -47 -31 -4 -35 -66 -8 -127 24 -56 28 -135 12 -214 -11 -51
-11 -61 5 -84 9 -15 18 -36 19 -47 1 -12 3 -24 4 -28 0 -5 8 -8 16 -8 23 0 35
-42 29 -97 -6 -47 13 -122 23 -95 6 17 32 -15 33 -40 0 -9 12 -30 26 -47 24
-28 26 -39 26 -114 -1 -54 2 -75 8 -62 7 17 9 15 9 -11 1 -17 8 -37 16 -44 9
-7 15 -29 15 -54 0 -22 6 -53 14 -67 11 -23 25 -62 32 -96 9 -46 57 -123 89
-142 19 -11 35 -24 35 -29 0 -10 87 -72 101 -72 6 0 7 -5 4 -10 -3 -6 0 -10 7
-10 14 0 43 -117 53 -215 3 -32 9 -62 14 -65 4 -3 11 -30 15 -60 4 -30 10 -65
13 -78 l5 -23 670 3 c624 3 670 4 682 21 7 9 24 17 37 18 22 0 22 1 4 8 -17 7
-16 9 13 15 37 9 41 20 12 38 -23 15 -27 48 -5 48 8 0 15 7 15 16 0 18 17 37
43 47 9 3 17 16 17 28 0 12 8 23 20 26 11 3 20 11 20 18 0 7 3 15 8 17 10 4
57 70 65 90 3 10 13 18 22 18 9 0 18 12 22 30 3 17 15 37 27 46 15 10 18 17 9
22 -9 5 -4 16 15 37 53 58 82 144 82 242 0 60 -3 71 -15 67 -8 -4 -15 -1 -15
5 0 6 3 11 8 11 4 0 7 25 8 55 0 30 -3 55 -7 55 -16 0 -39 65 -39 107 0 24 -4
42 -9 39 -15 -9 -21 53 -11 102 19 91 33 127 59 149 25 22 26 28 30 148 l3
125 25 0 c22 0 25 3 20 27 -5 26 6 54 31 81 6 7 12 33 12 58 0 38 -4 46 -24
53 -25 10 -36 30 -36 65 0 12 -11 33 -25 46 -14 13 -25 18 -25 12 0 -29 -19
-8 -25 28 -4 22 -11 40 -15 40 -22 0 -40 34 -40 78 -1 62 -15 124 -33 137 -8
5 -23 31 -34 56 -12 26 -30 56 -40 66 -10 10 -28 48 -39 83 -16 51 -25 66 -44
70 -15 3 -27 17 -33 35 -12 36 -47 86 -101 142 -23 22 -48 48 -56 57 -31 34
-88 76 -102 76 -8 0 -23 9 -33 20 -10 11 -14 20 -10 20 4 0 -2 9 -14 19 -21
19 -44 20 -541 21 -453 0 -520 -1 -533 -15z"/>
</g>
</svg>
